<svg width="97" height="20" viewBox="0 0 97 20" fill="none" xmlns="http://www.w3.org/2000/svg">
<path d="M5.97896 0.715424C6.53446 0.715424 7.07117 0.790746 7.58901 0.931983C8.10688 1.07322 8.59651 1.28036 9.04842 1.544C9.50037 1.80764 9.91466 2.12777 10.2913 2.49498C10.6679 2.86219 10.9881 3.27648 11.2611 3.72843C11.5342 4.18038 11.7413 4.66999 11.8919 5.19728C12.0426 5.72453 12.1179 6.27066 12.1179 6.83558C12.1179 7.31579 12.0615 7.78658 11.9579 8.23853C11.8543 8.69049 11.6942 9.12361 11.4871 9.52847C11.2799 9.93334 11.0351 10.31 10.7527 10.6678C10.4702 11.0161 10.1501 11.3363 9.80169 11.6093L11.6942 15.3756C11.7319 15.4415 11.7601 15.5074 11.7978 15.5827C11.8355 15.6581 11.8543 15.7239 11.8637 15.7805C11.8637 15.884 11.8261 15.9688 11.7507 16.0253C11.6754 16.0818 11.5813 16.11 11.4588 16.11H9.24614C8.99196 16.11 8.81302 15.9782 8.72831 15.7145L7.28769 12.7769C7.08055 12.8334 6.86399 12.8804 6.64743 12.9087C6.43087 12.9463 6.20489 12.9652 5.97896 12.9652H2.85294V15.6675C2.85294 15.9688 2.69287 16.11 2.37274 16.11H0.451951C0.15065 16.11 0 15.9593 0 15.6675V1.20504C0 0.875491 0.15065 0.715424 0.451951 0.715424H5.97896ZM9.34974 6.81675C9.34974 6.37421 9.27439 5.95051 9.11434 5.53622C8.95429 5.13136 8.73773 4.76416 8.46466 4.4346C8.1916 4.10506 7.86207 3.84142 7.47604 3.62486C7.08996 3.4083 6.67568 3.27648 6.23314 3.21999C6.04484 3.19174 5.85653 3.17291 5.66822 3.15408C5.47992 3.14466 5.28219 3.13525 5.08447 3.13525H2.86235V10.4701H5.84711C6.34615 10.4701 6.80753 10.3759 7.24065 10.1876C7.67376 9.99926 8.04096 9.74503 8.3517 9.41546C8.66239 9.08594 8.9072 8.69991 9.08609 8.25737C9.26498 7.82425 9.34974 7.33463 9.34974 6.81675Z" fill="black"/>
<path d="M21.4769 2.71188C17.0892 2.71188 13.5396 6.27099 13.5396 10.6493C13.5396 15.0276 17.0986 18.5867 21.4769 18.5867C25.8552 18.5867 29.4143 15.0276 29.4143 10.6493C29.4143 6.27099 25.8646 2.71188 21.4769 2.71188ZM25.9776 15.1123C25.4127 15.6772 24.7347 16.1198 23.9721 16.4493C23.2 16.7789 22.3808 16.9389 21.5146 16.9389C20.6295 16.9389 19.8009 16.7789 19.0288 16.4493C18.2568 16.1198 17.5883 15.6772 17.0139 15.1123C16.449 14.5473 15.997 13.8788 15.6675 13.1162C15.3379 12.3535 15.1684 11.5343 15.1684 10.6587C15.1684 9.78303 15.3379 8.96388 15.6675 8.20119C15.997 7.43855 16.449 6.77945 17.0139 6.21449C17.5788 5.64957 18.2568 5.21645 19.0288 4.88687C19.8009 4.56677 20.6295 4.39729 21.5146 4.39729C22.3808 4.39729 23.2 4.55735 23.9721 4.88687C24.7441 5.20703 25.4127 5.64957 25.9776 6.21449C26.5425 6.77945 26.9945 7.43855 27.324 8.20119C27.6536 8.96388 27.8231 9.78303 27.8231 10.6587C27.8231 11.5343 27.6536 12.3535 27.324 13.1162C26.9945 13.8788 26.552 14.5473 25.9776 15.1123Z" fill="#3D65FD"/>
<path d="M21.4772 5.62115C18.6996 5.62115 16.4492 7.87146 16.4492 10.6491C16.4492 13.4267 18.6996 15.677 21.4772 15.677C24.2548 15.677 26.5051 13.4267 26.5051 10.6491C26.5051 7.87146 24.2548 5.62115 21.4772 5.62115ZM21.4772 14.1894C19.5281 14.1894 17.9463 12.6076 17.9463 10.6585C17.9463 8.70945 19.5281 7.12765 21.4772 7.12765C23.4262 7.12765 25.0081 8.70945 25.0081 10.6585C25.0081 12.6076 23.4262 14.1894 21.4772 14.1894Z" fill="#3D65FD"/>
<path d="M21.524 12.6358C22.6368 12.6358 23.539 11.7337 23.539 10.6209C23.539 9.50807 22.6368 8.60596 21.524 8.60596C20.4112 8.60596 19.509 9.50807 19.509 10.6209C19.509 11.7337 20.4112 12.6358 21.524 12.6358Z" fill="#3D65FD"/>
<path d="M33.708 15.5454C33.708 15.7243 33.6515 15.8655 33.5479 15.9691C33.4444 16.0727 33.2937 16.1197 33.1148 16.1197H31.4577C31.081 16.1197 30.8833 15.9314 30.8833 15.5454V1.29009C30.8833 1.12061 30.9304 0.979373 31.034 0.866385C31.1375 0.753396 31.2787 0.696899 31.4577 0.696899H33.1148C33.2466 0.696899 33.3785 0.753396 33.5103 0.856967C33.6421 0.960538 33.708 1.11119 33.708 1.29009V15.5454Z" fill="black"/>
<path d="M39.5552 15.5454C39.5552 15.7243 39.4987 15.8655 39.3951 15.9691C39.2915 16.0727 39.1409 16.1197 38.962 16.1197H37.3049C36.9282 16.1197 36.7305 15.9314 36.7305 15.5454V1.29009C36.7305 1.12061 36.7776 0.979373 36.8812 0.866385C36.9847 0.753396 37.1259 0.696899 37.3049 0.696899H38.962C39.0938 0.696899 39.2256 0.753396 39.3574 0.856967C39.4893 0.960538 39.5552 1.11119 39.5552 1.29009V15.5454Z" fill="black"/>
<path d="M47.0221 13.8882C47.323 13.8882 47.634 13.8317 47.9634 13.7281C48.2927 13.6246 48.6038 13.455 48.9051 13.2385C48.9993 13.182 49.0838 13.1349 49.1592 13.0973C49.2345 13.0596 49.3099 13.0313 49.404 13.0313C49.4794 13.0313 49.5547 13.0502 49.6204 13.0878C49.6866 13.1255 49.7523 13.182 49.8184 13.2762L50.5902 14.3213C50.6844 14.4343 50.722 14.5567 50.722 14.6885C50.722 14.8015 50.6844 14.9051 50.6187 14.9992C50.5525 15.0934 50.4583 15.1781 50.355 15.2629C50.1386 15.4323 49.9029 15.5736 49.6392 15.7054C49.3755 15.8372 49.1027 15.9502 48.811 16.0443C48.5188 16.1385 48.2271 16.2044 47.9257 16.2609C47.6243 16.308 47.3326 16.3362 47.0409 16.3362C46.3343 16.3362 45.6754 16.195 45.054 15.922C44.4419 15.6489 43.8959 15.2723 43.4345 14.8015C42.9731 14.3307 42.6059 13.7752 42.3423 13.1349C42.0786 12.4947 41.9468 11.8073 41.9468 11.0635C41.9468 10.3479 42.0692 9.66998 42.3234 9.03914C42.5777 8.39888 42.926 7.84333 43.3686 7.3537C43.8111 6.87354 44.3384 6.49688 44.9504 6.21444C45.553 5.93196 46.2121 5.79074 46.9182 5.79074C47.5867 5.79074 48.2082 5.91312 48.7921 6.16735C49.3755 6.42158 49.8937 6.76053 50.3361 7.20306C50.7785 7.63618 51.1272 8.15406 51.3813 8.74724C51.6353 9.34041 51.7672 9.98067 51.7672 10.668V10.7339C51.7672 10.9976 51.7391 11.2142 51.673 11.3836C51.6073 11.5531 51.5131 11.6849 51.3909 11.7791C51.2591 11.8732 51.0987 11.9391 50.9104 11.9768C50.722 12.0145 50.496 12.0333 50.242 12.0333H44.7244C44.7903 12.3252 44.9033 12.5888 45.0634 12.8148C45.2234 13.0502 45.4024 13.2385 45.6095 13.3986C45.8166 13.5586 46.0426 13.681 46.2875 13.7658C46.5227 13.8411 46.7676 13.8882 47.0221 13.8882ZM49.1027 9.95242C49.0558 9.70765 48.9616 9.48167 48.8298 9.26511C48.6979 9.04855 48.5376 8.86962 48.3401 8.70956C48.1425 8.54951 47.9257 8.42708 47.6905 8.34237C47.4456 8.24819 47.1911 8.21052 46.9182 8.21052C46.6734 8.21052 46.4382 8.24819 46.2025 8.33295C45.9673 8.40829 45.7601 8.53068 45.5624 8.67189C45.3647 8.82258 45.2046 9.00147 45.0634 9.21802C44.9222 9.43458 44.828 9.6794 44.7715 9.95242H49.1027Z" fill="black"/>
<path d="M53.566 6.57216C53.566 6.36498 53.6414 6.21434 53.7824 6.12021C53.9239 6.02603 54.0649 5.97894 54.2156 5.97894H55.3457C55.4868 5.97894 55.5901 6.01662 55.6751 6.10137C55.7597 6.17667 55.835 6.28026 55.8915 6.41206C55.9577 6.54391 56.0142 6.68513 56.0707 6.8546C56.1272 7.02407 56.2025 7.20301 56.2871 7.3819C56.4001 7.17475 56.5131 6.97703 56.6449 6.78872C56.7768 6.60037 56.9178 6.44032 57.0873 6.28968C57.2568 6.13904 57.436 6.02603 57.6524 5.95069C57.8688 5.8754 58.1044 5.82831 58.3773 5.82831C58.669 5.82831 58.9235 5.84714 59.1307 5.88481C59.3471 5.92244 59.5451 5.97894 59.7334 6.05429C59.9213 6.12963 60.1097 6.23317 60.298 6.34619C60.4864 6.46857 60.6936 6.60979 60.9288 6.78872C61.1548 6.91111 61.2586 7.06174 61.2586 7.26888C61.2586 7.39131 61.221 7.53253 61.136 7.67375L60.4111 8.81306C60.3169 8.98253 60.1758 9.10496 60.0063 9.16146C59.8368 9.21792 59.6673 9.18025 59.5166 9.03903C59.3944 8.92607 59.2718 8.84131 59.1684 8.76597C59.0646 8.70009 58.9516 8.64358 58.8482 8.60591C58.7444 8.56824 58.6318 8.53999 58.5092 8.53057C58.387 8.5212 58.2643 8.51178 58.1136 8.51178C57.9064 8.51178 57.7277 8.53999 57.5678 8.5965C57.4075 8.653 57.2665 8.73776 57.1346 8.84131C57.0028 8.9449 56.8801 9.0767 56.7671 9.22734C56.6541 9.37802 56.5411 9.53808 56.4377 9.71696V15.4982C56.4377 15.6959 56.3909 15.8466 56.2871 15.9595C56.1837 16.0631 56.0234 16.1196 55.7973 16.1196H54.178C53.9804 16.1196 53.8201 16.0631 53.7167 15.9595C53.6129 15.856 53.5564 15.7053 53.5564 15.4982V6.57216H53.566Z" fill="black"/>
<path d="M68.2161 0.244808C68.2538 0.178898 68.3007 0.122405 68.3572 0.0753273C68.4233 0.0188334 68.5079 0 68.6305 0C68.7339 0 68.8189 0.0282465 68.8942 0.0847403C68.9599 0.141234 69.0164 0.207144 69.0637 0.28247C69.1106 0.357795 69.1483 0.433123 69.1767 0.499033C69.2048 0.564943 69.2332 0.621435 69.2521 0.640265L69.4308 1.05455C70.4851 3.49321 71.521 5.91302 72.5473 8.32343C73.5736 10.7338 74.6096 13.1537 75.6547 15.5923C75.6639 15.6112 75.6735 15.6488 75.6827 15.6865C75.6924 15.7336 75.7016 15.7712 75.7016 15.7995C75.7016 16.0066 75.5605 16.1102 75.2872 16.1102H73.2346C72.9521 16.1102 72.7637 15.9784 72.6603 15.7147L72.0673 14.1894H65.1841L62.9528 19.594C62.849 19.867 62.6515 20.0082 62.3689 20.0082H60.326C60.1753 20.0082 60.0623 19.98 60.0058 19.9235C59.9396 19.867 59.9116 19.7917 59.9116 19.6975C59.9116 19.6599 59.9208 19.6128 59.9305 19.5751C59.9396 19.5374 59.9493 19.4998 59.9681 19.4622C61.0036 17.0235 63.6966 10.715 64.7229 8.3046C65.7492 5.90361 66.7943 3.48379 67.8491 1.05455C67.9056 0.913317 67.9621 0.781502 68.0278 0.640265C68.0751 0.517864 68.1408 0.376627 68.2161 0.244808ZM68.6397 5.24451C68.5928 5.37636 68.5455 5.50816 68.4987 5.63996C68.4514 5.77181 68.4045 5.90361 68.3572 6.04483L66.0597 11.8261H71.1917L68.9222 6.04483C68.8846 5.91302 68.8377 5.78122 68.7904 5.64938C68.7339 5.50816 68.687 5.37636 68.6397 5.24451Z" fill="black"/>
<path d="M87.1231 15.5077C87.1231 15.6866 87.0758 15.8279 86.9725 15.9408C86.8686 16.0444 86.7276 16.1103 86.5392 16.1197H85.5221C85.4091 16.1197 85.3058 16.1197 85.2116 16.1103C85.1174 16.1009 85.0324 16.0821 84.9479 16.0444C84.8726 16.0068 84.7972 15.9597 84.7407 15.8843C84.6842 15.8184 84.6373 15.7148 84.5997 15.583L84.4867 14.9899C84.138 15.423 83.7521 15.7525 83.3285 15.9785C82.9045 16.2045 82.3776 16.3081 81.7652 16.3081C81.0779 16.3081 80.438 16.1668 79.8541 15.8937C79.261 15.6207 78.7525 15.2441 78.3101 14.7639C77.8769 14.2837 77.5378 13.7281 77.2838 13.0973C77.0389 12.457 76.9163 11.7791 76.9163 11.0541C76.9163 10.3197 77.0389 9.63234 77.2838 8.99208C77.5282 8.35182 77.8672 7.79632 78.3004 7.32553C78.7336 6.85474 79.2514 6.47812 79.8541 6.20506C80.4568 5.93199 81.1064 5.79077 81.8125 5.79077C82.3399 5.79077 82.8103 5.89432 83.2155 6.11088C83.6299 6.31802 83.9685 6.57225 84.2418 6.85474V1.30892C84.2418 1.13002 84.2983 0.979373 84.4113 0.866385C84.5243 0.753396 84.6842 0.696899 84.8914 0.696899H86.4543C86.6334 0.696899 86.7933 0.753396 86.9251 0.866385C87.057 0.979373 87.1323 1.13002 87.1323 1.30892V15.5077H87.1231ZM84.5147 11.12C84.5147 10.7528 84.449 10.4139 84.3263 10.0937C84.2041 9.77361 84.0346 9.50054 83.8182 9.25573C83.6014 9.02034 83.3565 8.83203 83.0648 8.69081C82.7731 8.54954 82.4717 8.48362 82.1607 8.48362C81.8405 8.48362 81.5396 8.54954 81.2663 8.69081C80.9838 8.83203 80.7389 9.02034 80.5322 9.25573C80.325 9.49113 80.1555 9.76419 80.0328 10.0843C79.9106 10.395 79.8541 10.734 79.8541 11.0918C79.8541 11.4402 79.9106 11.7791 80.0328 12.0898C80.1555 12.4005 80.3153 12.6736 80.5322 12.909C80.7389 13.1444 80.9838 13.3233 81.2663 13.4551C81.5488 13.5869 81.8502 13.6623 82.1607 13.6623C82.4809 13.6623 82.7823 13.5963 83.0648 13.4551C83.3474 13.3233 83.6014 13.135 83.8086 12.909C84.025 12.683 84.1945 12.4099 84.3263 12.1087C84.449 11.7979 84.5147 11.4684 84.5147 11.12Z" fill="black"/>
<path d="M89.2885 14.7073C89.204 14.6131 89.1383 14.519 89.091 14.4342C89.0441 14.3495 89.0156 14.2365 89.0156 14.1047C89.0156 14.0482 89.0253 13.9823 89.0441 13.907C89.0629 13.8316 89.1383 13.7375 89.2885 13.6339L90.381 12.73H90.3713C90.3433 12.73 90.3433 12.7206 90.3621 12.7112C90.381 12.7017 90.409 12.6923 90.4466 12.6829C90.4843 12.6735 90.522 12.6641 90.5693 12.6547C90.607 12.6452 90.6446 12.6358 90.6635 12.6358C90.7577 12.6358 90.8422 12.6641 90.9272 12.73C91.0025 12.7959 91.0682 12.8712 91.1344 12.956C91.2474 13.1254 91.3792 13.2573 91.5483 13.3703C91.7178 13.4738 91.8873 13.568 92.0665 13.6339C92.2452 13.6998 92.4243 13.7469 92.5934 13.7751C92.7629 13.8034 92.9136 13.8128 93.0363 13.8128C93.1493 13.8128 93.2811 13.794 93.4222 13.7657C93.5637 13.7375 93.695 13.6904 93.8177 13.6245C93.9399 13.5586 94.0437 13.4833 94.1283 13.3985C94.2132 13.3043 94.2509 13.2008 94.2509 13.0784C94.2509 12.9466 94.2036 12.8336 94.1191 12.73C94.0249 12.6264 93.9119 12.5323 93.7515 12.4475C93.6009 12.3628 93.4222 12.2875 93.2246 12.2121C93.0266 12.1368 92.8102 12.0709 92.5842 12.0144C91.4918 11.7037 90.6635 11.2706 90.0892 10.7245C89.5242 10.1784 89.2416 9.50985 89.2416 8.70949C89.2416 8.26695 89.3358 7.86209 89.5242 7.50431C89.7125 7.13711 89.9762 6.82638 90.3153 6.56273C90.6538 6.29913 91.0494 6.09199 91.5106 5.95072C91.9723 5.8095 92.4809 5.73416 93.0363 5.73416C94.4581 5.73416 95.5974 6.28971 96.473 7.39134C96.5107 7.4478 96.5484 7.50431 96.5575 7.56081C96.5764 7.61732 96.586 7.67378 96.586 7.71145C96.5764 7.80563 96.5484 7.87151 96.501 7.92801C96.4634 7.98452 96.388 8.05044 96.2938 8.12574H96.3035L96.275 8.15399L96.2562 8.17282L96.162 8.28579L95.8795 8.52118C95.7008 8.67187 95.5501 8.80367 95.4279 8.91668C95.3052 9.02964 95.183 9.08615 95.0604 9.07673C94.9474 9.07673 94.8532 9.04848 94.7875 9.00139C94.7213 8.94489 94.6556 8.87901 94.5803 8.80367C94.4861 8.70007 94.3828 8.60594 94.2601 8.51177C94.1379 8.41764 94.006 8.3423 93.8742 8.267C93.7424 8.19166 93.6009 8.13515 93.4598 8.09748C93.3188 8.05981 93.1869 8.03161 93.0643 8.03161C92.8006 8.03161 92.5934 8.05981 92.4432 8.12574C92.2925 8.19166 92.1795 8.267 92.0945 8.35171C92.0192 8.43647 91.9627 8.5306 91.9346 8.62478C91.9061 8.71891 91.897 8.79425 91.897 8.85075C91.897 8.99197 91.9346 9.10499 92.0192 9.19912C92.1041 9.29329 92.2075 9.378 92.3394 9.44393C92.4712 9.50985 92.6122 9.56636 92.7726 9.6134C92.9324 9.66049 93.0831 9.69816 93.2246 9.74525L93.4033 9.80171C93.9307 9.94297 94.4108 10.1124 94.8532 10.3007C95.296 10.4891 95.6727 10.715 95.9925 10.9693C96.3127 11.2329 96.5575 11.5342 96.7367 11.8826C96.9154 12.231 96.9999 12.6452 96.9999 13.116C96.9999 13.6245 96.8966 14.0764 96.6802 14.4719C96.4634 14.8673 96.1716 15.2063 95.7949 15.4793C95.4182 15.7524 94.985 15.9596 94.4769 16.1102C93.9684 16.2515 93.4318 16.3268 92.8479 16.3268C92.5181 16.3268 92.1795 16.2985 91.8496 16.2326C91.5106 16.1667 91.1909 16.0631 90.8799 15.9313C90.5693 15.7995 90.2776 15.63 90.0042 15.4323C89.7502 15.2157 89.5053 14.9804 89.2885 14.7073Z" fill="black"/>
</svg>
