<svg width="32" height="32" viewBox="0 0 32 32" fill="none" xmlns="http://www.w3.org/2000/svg">
<rect width="32" height="32" rx="4" fill="#BAC3FF" fill-opacity="0.3"/>
<path d="M14.23 23.4775C13.855 23.6575 13.405 23.5 13.2325 23.125L11.5975 19.57L9.715 21.085C9.5875 21.19 9.43 21.25 9.25 21.25C9.05109 21.25 8.86032 21.171 8.71967 21.0303C8.57902 20.8897 8.5 20.6989 8.5 20.5V9.25C8.5 9.05109 8.57902 8.86032 8.71967 8.71967C8.86032 8.57902 9.05109 8.5 9.25 8.5C9.43 8.5 9.6025 8.5675 9.73 8.6725L9.7375 8.665L18.355 15.895C18.6775 16.165 18.715 16.6375 18.4525 16.9525C18.34 17.0875 18.1825 17.1775 18.025 17.2075L15.655 17.6725L17.305 21.22C17.5 21.595 17.32 22.0375 16.945 22.21L14.23 23.4775Z" fill="#1B1B1F"/>
<path d="M11.5525 17.7051C11.9275 17.5251 12.37 17.6901 12.55 18.0652L14.275 21.8088L15.625 21.1711L13.8925 17.435C13.7125 17.0599 13.8775 16.6098 14.2525 16.4373L14.4625 16.3772L16.1875 16.0396L10 10.8407V18.928L11.365 17.8252L11.5525 17.7051ZM14.23 23.4818C13.855 23.6618 13.405 23.5043 13.2325 23.1292L11.5975 19.5732L9.715 21.0886C9.5875 21.1936 9.43 21.2536 9.25 21.2536C9.05109 21.2536 8.86032 21.1746 8.71967 21.0339C8.57902 20.8932 8.5 20.7024 8.5 20.5034V9.25021C8.5 9.05124 8.57902 8.86042 8.71967 8.71973C8.86032 8.57904 9.05109 8.5 9.25 8.5C9.43 8.5 9.6025 8.56752 9.73 8.67255L9.7375 8.66505L18.355 15.8971C18.6775 16.1672 18.715 16.6398 18.4525 16.9549C18.34 17.0899 18.1825 17.18 18.025 17.21L15.655 17.6751L17.305 21.2236C17.5 21.5987 17.32 22.0414 16.945 22.2139L14.23 23.4818Z" fill="#BAC3FF"/>
<path d="M25 11.3762H22.375V14.002H20.625V11.3762H18V9.62575H20.625V7H22.375V9.62575H25V11.3762Z" fill="#BAC3FF"/>
</svg>
