<svg width="32" height="32" viewBox="0 0 32 32" fill="none" xmlns="http://www.w3.org/2000/svg">
<rect width="32" height="32" rx="4" fill="#BAC3FF" fill-opacity="0.3"/>
<path d="M17.23 23.4775C16.855 23.6575 16.405 23.5 16.2325 23.125L14.5975 19.57L12.715 21.085C12.5875 21.19 12.43 21.25 12.25 21.25C12.0511 21.25 11.8603 21.171 11.7197 21.0303C11.579 20.8897 11.5 20.6989 11.5 20.5V9.25C11.5 9.05109 11.579 8.86032 11.7197 8.71967C11.8603 8.57902 12.0511 8.5 12.25 8.5C12.43 8.5 12.6025 8.5675 12.73 8.6725L12.7375 8.665L21.355 15.895C21.6775 16.165 21.715 16.6375 21.4525 16.9525C21.34 17.0875 21.1825 17.1775 21.025 17.2075L18.655 17.6725L20.305 21.22C20.5 21.595 20.32 22.0375 19.945 22.21L17.23 23.4775Z" fill="#1B1B1F"/>
<path d="M14.5525 17.7025C14.9275 17.5225 15.37 17.6875 15.55 18.0625L17.275 21.805L18.625 21.1675L16.8925 17.4325C16.7125 17.0575 16.8775 16.6075 17.2525 16.435L17.4625 16.375L19.1875 16.0375L13 10.84V18.925L14.365 17.8225L14.5525 17.7025ZM17.23 23.4775C16.855 23.6575 16.405 23.5 16.2325 23.125L14.5975 19.57L12.715 21.085C12.5875 21.19 12.43 21.25 12.25 21.25C12.0511 21.25 11.8603 21.171 11.7197 21.0303C11.579 20.8897 11.5 20.6989 11.5 20.5V9.25C11.5 9.05109 11.579 8.86032 11.7197 8.71967C11.8603 8.57902 12.0511 8.5 12.25 8.5C12.43 8.5 12.6025 8.5675 12.73 8.6725L12.7375 8.665L21.355 15.895C21.6775 16.165 21.715 16.6375 21.4525 16.9525C21.34 17.0875 21.1825 17.1775 21.025 17.2075L18.655 17.6725L20.305 21.22C20.5 21.595 20.32 22.0375 19.945 22.21L17.23 23.4775Z" fill="#BAC3FF"/>
</svg>
