<svg width="32" height="32" viewBox="0 0 32 32" fill="none" xmlns="http://www.w3.org/2000/svg">
<rect width="32" height="32" rx="4" fill="#BAC3FF" fill-opacity="0.3"/>
<circle cx="16" cy="16" r="4" fill="#1B1B1F"/>
<path d="M16 13.75C15.4033 13.75 14.831 13.9871 14.409 14.409C13.9871 14.831 13.75 15.4033 13.75 16C13.75 16.5967 13.9871 17.169 14.409 17.591C14.831 18.0129 15.4033 18.25 16 18.25C16.5967 18.25 17.169 18.0129 17.591 17.591C18.0129 17.169 18.25 16.5967 18.25 16C18.25 15.4033 18.0129 14.831 17.591 14.409C17.169 13.9871 16.5967 13.75 16 13.75ZM16 19.75C15.0054 19.75 14.0516 19.3549 13.3483 18.6517C12.6451 17.9484 12.25 16.9946 12.25 16C12.25 15.0054 12.6451 14.0516 13.3483 13.3483C14.0516 12.6451 15.0054 12.25 16 12.25C16.9946 12.25 17.9484 12.6451 18.6517 13.3483C19.3549 14.0516 19.75 15.0054 19.75 16C19.75 16.9946 19.3549 17.9484 18.6517 18.6517C17.9484 19.3549 16.9946 19.75 16 19.75V19.75ZM16 10.375C12.25 10.375 9.0475 12.7075 7.75 16C9.0475 19.2925 12.25 21.625 16 21.625C19.75 21.625 22.9525 19.2925 24.25 16C22.9525 12.7075 19.75 10.375 16 10.375Z" fill="#BAC3FF"/>
<path d="M28 8.375H25.375V11H23.625V8.375H21V6.625H23.625V4H25.375V6.625H28V8.375Z" fill="#BAC3FF"/>
</svg>
