<svg width="18" height="18" viewBox="0 0 18 18" fill="none" xmlns="http://www.w3.org/2000/svg">
<path d="M7.5 14.25H9.75V16.5H7.5V14.25ZM9 1.5C13.0125 1.665 14.76 5.715 12.375 8.7525C11.7525 9.5025 10.7475 9.9975 10.2525 10.6275C9.75 11.25 9.75 12 9.75 12.75H7.5C7.5 11.4975 7.5 10.44 8.0025 9.69C8.4975 8.94 9.5025 8.4975 10.125 8.0025C11.94 6.3225 11.49 3.945 9 3.75C8.40326 3.75 7.83097 3.98705 7.40901 4.40901C6.98705 4.83097 6.75 5.40326 6.75 6H4.5C4.5 4.80653 4.97411 3.66193 5.81802 2.81802C6.66193 1.97411 7.80653 1.5 9 1.5Z" fill="#3C4257"/>
</svg>
