<svg width="16" height="16" viewBox="0 0 16 16" fill="none" xmlns="http://www.w3.org/2000/svg">
<path d="M6.66667 9.52663L4.33333 12.6666H11.64L9.83333 10.3066L8.52 11.8666L6.66667 9.52663ZM3.33333 14V4.66663H12.64V14H3.33333ZM8 1.59996L9.74 3.35329H6.24667L8 1.59996ZM3.33333 3.35329C3 3.35329 2.66667 3.47996 2.40667 3.73996C2.13333 3.99996 2 4.30663 2 4.66663V14C2 14.3333 2.13333 14.6666 2.40667 14.9266C2.66667 15.2 3 15.3333 3.33333 15.3333H12.64C13 15.3333 13.3067 15.2 13.58 14.9266C13.8467 14.6666 14 14.3333 14 14V4.66663C14 4.30663 13.8467 3.99996 13.58 3.73996C13.3067 3.47996 13 3.35329 12.64 3.35329H10.6667L8 0.666626L5.30667 3.35329H3.33333Z" fill="#3C4257"/>
</svg>
