<svg width="18" height="18" viewBox="0 0 18 18" fill="none" xmlns="http://www.w3.org/2000/svg"><path d="M6.66708 8.99993C6.66708 8.53845 6.80394 8.08732 7.06035 7.70361C7.31676 7.3199 7.68121 7.02084 8.10761 6.84423C8.53401 6.66763 9.00321 6.62142 9.45587 6.71145C9.90853 6.80149 10.3243 7.02371 10.6507 7.35003C10.977 7.67635 11.1993 8.09211 11.2893 8.54472C11.3794 8.99734 11.3331 9.46649 11.1565 9.89285C10.9799 10.3192 10.6808 10.6836 10.2971 10.94C9.91331 11.1964 9.46215 11.3332 9.00062 11.3332C8.38172 11.3332 7.78818 11.0874 7.35056 10.6498C6.91293 10.2123 6.66708 9.61876 6.66708 8.99993ZM5.40546 8.99993C5.40546 9.71082 5.61628 10.4057 6.01125 10.9968C6.40623 11.5879 6.96763 12.0486 7.62446 12.3207C8.28129 12.5927 9.00405 12.6639 9.70136 12.5253C10.3987 12.3866 11.0392 12.0443 11.5419 11.5417C12.0447 11.0391 12.3871 10.3986 12.5258 9.70142C12.6646 9.0042 12.5935 8.2815 12.3214 7.6247C12.0494 6.9679 11.5887 6.40651 10.9976 6.0115C10.4065 5.61649 9.71158 5.40562 9.00062 5.40554C8.52854 5.40552 8.06109 5.49848 7.62495 5.67911C7.1888 5.85973 6.79251 6.1245 6.45871 6.45827C6.1249 6.79204 5.86011 7.18829 5.67947 7.62439C5.49882 8.06049 5.40585 8.5279 5.40587 8.99993M11.897 5.26307C11.8969 5.4292 11.9461 5.59162 12.0384 5.72979C12.1306 5.86795 12.2618 5.97566 12.4153 6.03929C12.5688 6.10291 12.7377 6.1196 12.9006 6.08725C13.0636 6.05489 13.2133 5.97494 13.3309 5.8575C13.4484 5.74006 13.5284 5.59042 13.5609 5.42748C13.5934 5.26455 13.5768 5.09565 13.5133 4.94214C13.4497 4.78863 13.3421 4.65741 13.204 4.56507C13.0659 4.47272 12.9035 4.4234 12.7373 4.42335C12.5146 4.42346 12.301 4.51195 12.1435 4.6694C11.986 4.82685 11.8974 5.04037 11.8972 5.26307M6.17292 14.6977C5.72896 14.6927 5.28919 14.6112 4.87286 14.457C4.5688 14.3446 4.29369 14.1657 4.06765 13.9334C3.83494 13.7079 3.65596 13.4329 3.54398 13.1288C3.38947 12.7126 3.30784 12.2728 3.30266 11.8289C3.26876 11.091 3.26148 10.8693 3.26148 9.00007C3.26148 7.13081 3.26876 6.9097 3.30266 6.17127C3.30824 5.72741 3.38967 5.28777 3.54343 4.87134C3.65582 4.56731 3.83474 4.29223 4.0671 4.06622C4.29275 3.83339 4.56797 3.65442 4.87231 3.54259C5.28879 3.38818 5.72876 3.30669 6.17292 3.30171C6.91086 3.26781 7.13255 3.26054 9.00062 3.26054C10.8687 3.26054 11.0912 3.26781 11.8297 3.30171C12.2736 3.30729 12.7133 3.38871 13.1297 3.54246C13.4339 3.65463 13.7091 3.83356 13.935 4.06608C14.1675 4.29195 14.3464 4.56707 14.4586 4.87121C14.6129 5.28748 14.6944 5.72722 14.6994 6.17114C14.7333 6.90956 14.7406 7.13067 14.7406 8.99993C14.7406 10.8692 14.7338 11.0903 14.6994 11.8287C14.694 12.2726 14.6126 12.7123 14.4586 13.1287C14.3421 13.4305 14.1637 13.7047 13.9348 13.9334C13.7059 14.1622 13.4317 14.3405 13.1297 14.4569C12.7134 14.6112 12.2737 14.6926 11.8297 14.6976C11.0917 14.7315 10.8701 14.7388 9.00062 14.7388C7.13118 14.7388 6.91004 14.7321 6.17292 14.6976M6.11444 2.04241C5.53372 2.0539 4.95915 2.16384 4.41521 2.36757C3.94804 2.54334 3.52481 2.81885 3.17501 3.17489C2.81856 3.52433 2.54293 3.94755 2.36746 4.41484C2.16377 4.95878 2.05386 5.53333 2.04242 6.11404C2.00796 6.86042 2 7.09897 2 8.99993C2 10.9009 2.00796 11.1394 2.04242 11.8858C2.05392 12.4665 2.16387 13.041 2.3676 13.5849C2.54306 14.0522 2.81864 14.4754 3.17501 14.825C3.52493 15.1808 3.94806 15.4564 4.41508 15.6324C4.95903 15.8361 5.53359 15.946 6.1143 15.9576C6.86117 15.9915 7.09933 16 9.00048 16C10.9016 16 11.1402 15.992 11.8867 15.9576C12.4674 15.9461 13.0419 15.8361 13.5859 15.6324C14.051 15.4526 14.4735 15.1776 14.8261 14.825C15.1787 14.4724 15.4538 14.05 15.6336 13.5849C15.8376 13.0411 15.9476 12.4665 15.9588 11.8858C15.9927 11.1389 16 10.9009 16 8.99993C16 7.09897 15.992 6.86042 15.9588 6.11404C15.9473 5.53337 15.8374 4.95885 15.6336 4.41498C15.4576 3.94798 15.1821 3.52484 14.8262 3.17489C14.4768 2.81867 14.0538 2.54309 13.5867 2.36743C13.0428 2.1636 12.4681 2.0537 11.8873 2.04241C11.141 2.00851 10.9023 2 9.00062 2C7.09892 2 6.86063 2.00796 6.11389 2.04241" fill="#B5AABE"/><path d="M6.66708 8.99993C6.66708 8.53845 6.80394 8.08732 7.06035 7.70361C7.31676 7.3199 7.68121 7.02084 8.10761 6.84423C8.53401 6.66763 9.00321 6.62142 9.45587 6.71145C9.90853 6.80149 10.3243 7.02371 10.6507 7.35003C10.977 7.67635 11.1993 8.09211 11.2893 8.54472C11.3794 8.99734 11.3331 9.46649 11.1565 9.89285C10.9799 10.3192 10.6808 10.6836 10.2971 10.94C9.91331 11.1964 9.46215 11.3332 9.00062 11.3332C8.38172 11.3332 7.78818 11.0874 7.35056 10.6498C6.91293 10.2123 6.66708 9.61876 6.66708 8.99993ZM5.40546 8.99993C5.40546 9.71082 5.61628 10.4057 6.01125 10.9968C6.40623 11.5879 6.96763 12.0486 7.62446 12.3207C8.28129 12.5927 9.00405 12.6639 9.70136 12.5253C10.3987 12.3866 11.0392 12.0443 11.5419 11.5417C12.0447 11.0391 12.3871 10.3986 12.5258 9.70142C12.6646 9.0042 12.5935 8.2815 12.3214 7.6247C12.0494 6.9679 11.5887 6.40651 10.9976 6.0115C10.4065 5.61649 9.71157 5.40562 9.00062 5.40554C8.52854 5.40552 8.06109 5.49848 7.62495 5.67911C7.1888 5.85973 6.79251 6.1245 6.45871 6.45827C6.1249 6.79204 5.86011 7.18829 5.67947 7.62439C5.49882 8.06049 5.40585 8.5279 5.40587 8.99993M11.897 5.26307C11.8969 5.4292 11.9461 5.59162 12.0384 5.72979C12.1306 5.86795 12.2618 5.97566 12.4153 6.03929C12.5688 6.10291 12.7377 6.1196 12.9006 6.08725C13.0636 6.05489 13.2133 5.97494 13.3309 5.8575C13.4484 5.74006 13.5284 5.59042 13.5609 5.42748C13.5934 5.26455 13.5768 5.09565 13.5133 4.94214C13.4497 4.78863 13.3421 4.65741 13.204 4.56507C13.0659 4.47272 12.9035 4.4234 12.7373 4.42335C12.5146 4.42346 12.301 4.51195 12.1435 4.6694C11.986 4.82685 11.8974 5.04037 11.8972 5.26307M6.17292 14.6977C5.72896 14.6927 5.28919 14.6112 4.87286 14.457C4.5688 14.3446 4.29369 14.1657 4.06765 13.9334C3.83494 13.7079 3.65596 13.4329 3.54398 13.1288C3.38947 12.7126 3.30784 12.2728 3.30266 11.8289C3.26876 11.091 3.26148 10.8693 3.26148 9.00007C3.26148 7.13081 3.26876 6.9097 3.30266 6.17127C3.30824 5.72741 3.38967 5.28777 3.54343 4.87134C3.65582 4.56731 3.83474 4.29223 4.0671 4.06622C4.29275 3.83339 4.56797 3.65442 4.87231 3.54259C5.28879 3.38818 5.72876 3.30669 6.17292 3.30171C6.91086 3.26781 7.13255 3.26054 9.00062 3.26054C10.8687 3.26054 11.0912 3.26781 11.8297 3.30171C12.2736 3.30729 12.7133 3.38871 13.1297 3.54246C13.4339 3.65463 13.7091 3.83356 13.935 4.06608C14.1675 4.29195 14.3464 4.56707 14.4586 4.87121C14.6129 5.28748 14.6944 5.72722 14.6994 6.17114C14.7333 6.90956 14.7406 7.13068 14.7406 8.99993C14.7406 10.8692 14.7338 11.0903 14.6994 11.8287C14.694 12.2726 14.6126 12.7123 14.4586 13.1287C14.3421 13.4305 14.1637 13.7047 13.9348 13.9334C13.7059 14.1622 13.4317 14.3405 13.1297 14.4569C12.7134 14.6112 12.2737 14.6926 11.8297 14.6976C11.0917 14.7315 10.8701 14.7388 9.00062 14.7388C7.13118 14.7388 6.91004 14.7321 6.17292 14.6976M6.11444 2.04241C5.53371 2.0539 4.95915 2.16384 4.41521 2.36757C3.94804 2.54334 3.52481 2.81885 3.17501 3.17489C2.81856 3.52433 2.54293 3.94755 2.36746 4.41484C2.16377 4.95878 2.05386 5.53333 2.04242 6.11404C2.00796 6.86042 2 7.09897 2 8.99993C2 10.9009 2.00796 11.1394 2.04242 11.8858C2.05392 12.4665 2.16387 13.041 2.3676 13.5849C2.54306 14.0522 2.81864 14.4754 3.17501 14.825C3.52493 15.1808 3.94806 15.4564 4.41508 15.6324C4.95903 15.8361 5.53359 15.946 6.1143 15.9576C6.86117 15.9915 7.09933 16 9.00048 16C10.9016 16 11.1402 15.992 11.8867 15.9576C12.4674 15.9461 13.0419 15.8361 13.5859 15.6324C14.051 15.4526 14.4735 15.1776 14.8261 14.825C15.1787 14.4724 15.4538 14.05 15.6336 13.5849C15.8376 13.0411 15.9476 12.4665 15.9588 11.8858C15.9927 11.1389 16 10.9009 16 8.99993C16 7.09897 15.992 6.86042 15.9588 6.11404C15.9473 5.53337 15.8374 4.95885 15.6336 4.41498C15.4576 3.94798 15.1821 3.52484 14.8262 3.17489C14.4768 2.81867 14.0538 2.54309 13.5867 2.36743C13.0428 2.1636 12.4681 2.0537 11.8873 2.04241C11.141 2.00851 10.9023 2 9.00062 2C7.09892 2 6.86063 2.00796 6.11389 2.04241" fill="#B5AABE"/></svg>