<svg width="18" height="18" viewBox="0 0 18 18" fill="none" xmlns="http://www.w3.org/2000/svg"><path fill-rule="evenodd" clip-rule="evenodd" d="M7.2003 6.8783H9.8001V8.1733C10.1746 7.4285 11.135 6.7593 12.5777 6.7593C15.3434 6.7593 16 8.2419 16 10.9621V16H13.2V11.5816C13.2 10.0325 12.8255 9.1589 11.8721 9.1589C10.5498 9.1589 10.0003 10.1004 10.0003 11.5809V16H7.2003V6.8783ZM2.399 15.881H5.199V6.7593H2.399V15.881ZM5.6001 3.785C5.6002 4.01969 5.55366 4.25206 5.46317 4.46861C5.37268 4.68516 5.24006 4.88156 5.073 5.0464C4.73448 5.38284 4.27627 5.57116 3.799 5.57C3.32257 5.56968 2.86542 5.38184 2.5264 5.0471C2.35995 4.8817 2.22777 4.68508 2.13744 4.4685C2.04711 4.25193 2.00041 4.01966 2 3.785C2 3.3111 2.189 2.8575 2.5271 2.5229C2.86582 2.18771 3.32317 1.99979 3.7997 2C4.2771 2 4.7349 2.1883 5.073 2.5229C5.4104 2.8575 5.6001 3.3111 5.6001 3.785Z" fill="#B5AABE"/></svg>