<svg width="18" height="18" viewBox="0 0 18 18" fill="none" xmlns="http://www.w3.org/2000/svg">
<path d="M9 6H3C2.60218 6 2.22064 6.15804 1.93934 6.43934C1.65804 6.72064 1.5 7.10218 1.5 7.5V10.5C1.5 10.8978 1.65804 11.2794 1.93934 11.5607C2.22064 11.842 2.60218 12 3 12H3.75V15C3.75 15.1989 3.82902 15.3897 3.96967 15.5303C4.11032 15.671 4.30109 15.75 4.5 15.75H6C6.19891 15.75 6.38968 15.671 6.53033 15.5303C6.67098 15.3897 6.75 15.1989 6.75 15V12H9L12.75 15V3L9 6ZM11.25 11.7L9.75 10.5H3V7.5H9.75L11.25 6.3V11.7ZM16.125 9C16.125 10.2825 15.405 11.445 14.25 12V6C15.3975 6.5625 16.125 7.725 16.125 9Z" fill="#3C4257"/>
</svg>
