<svg width="16" height="16" viewBox="0 0 16 16" fill="none" xmlns="http://www.w3.org/2000/svg">
<path d="M7.99998 1.33334C8.87546 1.33334 9.74237 1.50578 10.5512 1.84081C11.36 2.17584 12.095 2.66691 12.714 3.28597C13.3331 3.90502 13.8241 4.63995 14.1592 5.44879C14.4942 6.25762 14.6666 7.12453 14.6666 8.00001C14.6666 9.76812 13.9643 11.4638 12.714 12.7141C11.4638 13.9643 9.76809 14.6667 7.99998 14.6667C7.1245 14.6667 6.25759 14.4942 5.44876 14.1592C4.63992 13.8242 3.90499 13.3331 3.28593 12.7141C2.03569 11.4638 1.33331 9.76812 1.33331 8.00001C1.33331 6.2319 2.03569 4.53621 3.28593 3.28597C4.53618 2.03572 6.23187 1.33334 7.99998 1.33334V1.33334ZM7.99998 2.66668C6.58549 2.66668 5.22894 3.22858 4.22874 4.22877C3.22855 5.22897 2.66665 6.58552 2.66665 8.00001C2.66665 9.4145 3.22855 10.7711 4.22874 11.7712C5.22894 12.7714 6.58549 13.3333 7.99998 13.3333C9.41447 13.3333 10.771 12.7714 11.7712 11.7712C12.7714 10.7711 13.3333 9.4145 13.3333 8.00001C13.3333 6.58552 12.7714 5.22897 11.7712 4.22877C10.771 3.22858 9.41447 2.66668 7.99998 2.66668V2.66668ZM7.33331 11.3333V10.6667H5.99998V9.33334H8.66665V8.66668H6.66665C6.48984 8.66668 6.32027 8.59644 6.19524 8.47141C6.07022 8.34639 5.99998 8.17682 5.99998 8.00001V6.00001C5.99998 5.8232 6.07022 5.65363 6.19524 5.52861C6.32027 5.40358 6.48984 5.33334 6.66665 5.33334H7.33331V4.66668H8.66665V5.33334H9.99998V6.66668H7.33331V7.33334H9.33331C9.51012 7.33334 9.67969 7.40358 9.80472 7.52861C9.92974 7.65363 9.99998 7.8232 9.99998 8.00001V10C9.99998 10.1768 9.92974 10.3464 9.80472 10.4714C9.67969 10.5964 9.51012 10.6667 9.33331 10.6667H8.66665V11.3333H7.33331Z" fill="#3C4257"/>
</svg>
