<svg width="16" height="16" viewBox="0 0 16 16" fill="none" xmlns="http://www.w3.org/2000/svg">
	<path
		d="M13.3333 7.33333H2.66659V5.33333H13.3333M13.3333 10H8.66658V8.66667H13.3333M13.3333 12.6667H8.66658V11.3333H13.3333M7.33325 12.6667H2.66659V8.66667H7.33325M13.5533 3.11333L12.4466 2L11.3333 3.11333L10.2199 2L9.11325 3.11333L7.99992 2L6.88658 3.11333L5.77992 2L4.66659 3.11333L3.55325 2L2.44659 3.11333L1.33325 2V12.6667C1.33325 13.0203 1.47373 13.3594 1.72378 13.6095C1.97382 13.8595 2.31296 14 2.66659 14H13.3333C13.6869 14 14.026 13.8595 14.2761 13.6095C14.5261 13.3594 14.6666 13.0203 14.6666 12.6667V2L13.5533 3.11333Z"
		fill="#3C4257"/>
</svg>
