<svg width="18" height="18" viewBox="0 0 18 18" fill="none" xmlns="http://www.w3.org/2000/svg">
<path d="M3.375 9C3.375 7.36667 4.275 5.96667 5.625 5.325V4.04167C3.65625 4.8 2.25 6.725 2.25 9C2.25 11.275 3.65625 13.2 5.625 13.9583V12.675C4.275 12.0333 3.375 10.6333 3.375 9ZM10.6875 3.75C7.875 3.75 5.625 6.08333 5.625 9C5.625 11.9167 7.875 14.25 10.6875 14.25C13.5 14.25 15.75 11.9167 15.75 9C15.75 6.08333 13.5 3.75 10.6875 3.75ZM13.5 9.58335H11.25V11.9167H10.125V9.58335H7.875V8.41665H10.125V6.08333H11.25V8.41665H13.5V9.58335Z" fill="#3C4257"/>
</svg>
