<svg width="18" height="18" viewBox="0 0 18 18" fill="none" xmlns="http://www.w3.org/2000/svg">
<path d="M9 5.25V3.75C9 2.925 8.325 2.25 7.5 2.25H3C2.175 2.25 1.5 2.925 1.5 3.75V14.25C1.5 15.075 2.175 15.75 3 15.75H15C15.825 15.75 16.5 15.075 16.5 14.25V6.75C16.5 5.925 15.825 5.25 15 5.25H9ZM7.5 14.25H3V12.75H7.5V14.25ZM7.5 11.25H3V9.75H7.5V11.25ZM7.5 8.25H3V6.75H7.5V8.25ZM7.5 5.25H3V3.75H7.5V5.25ZM15 14.25H9V6.75H15V14.25ZM13.5 8.25H10.5V9.75H13.5V8.25ZM13.5 11.25H10.5V12.75H13.5V11.25Z" fill="#3C4257"/>
</svg>
