<svg width="20" height="20" viewBox="0 0 20 20" fill="none" xmlns="http://www.w3.org/2000/svg">
<g clip-path="url(#clip0_770_39)">
<path d="M9.99844 0.399902C7.45236 0.399902 5.01056 1.41133 3.21021 3.21168C1.40986 5.01203 0.398438 7.45382 0.398438 9.9999C0.398503 11.2606 0.64688 12.5089 1.12939 13.6736C1.61189 14.8383 2.31908 15.8966 3.21057 16.788C4.10205 17.6794 5.16039 18.3865 6.32514 18.8688C7.48989 19.3512 8.73825 19.5995 9.99894 19.5994C11.2596 19.5993 12.508 19.351 13.6727 18.8685C14.8374 18.386 15.8956 17.6788 16.787 16.7873C17.6784 15.8958 18.3855 14.8375 18.8679 13.6727C19.3503 12.508 19.5985 11.2596 19.5984 9.9989C19.5984 4.6979 15.2994 0.399902 9.99844 0.399902ZM9.99844 17.5989C8.99312 17.6104 7.99551 17.4224 7.06338 17.0456C6.13125 16.6689 5.28314 16.111 4.56816 15.4041C3.85318 14.6973 3.28555 13.8557 2.89815 12.9279C2.51074 12.0002 2.31126 11.0048 2.31126 9.9994C2.31126 8.99402 2.51074 7.99863 2.89815 7.07088C3.28555 6.14314 3.85318 5.30148 4.56816 4.59466C5.28314 3.88783 6.13125 3.32989 7.06338 2.95316C7.99551 2.57642 8.99312 2.38837 9.99844 2.3999C11.0038 2.38837 12.0014 2.57642 12.9335 2.95316C13.8656 3.32989 14.7137 3.88783 15.4287 4.59466C16.1437 5.30148 16.7113 6.14314 17.0987 7.07088C17.4861 7.99863 17.6856 8.99402 17.6856 9.9994C17.6856 11.0048 17.4861 12.0002 17.0987 12.9279C16.7113 13.8557 16.1437 14.6973 15.4287 15.4041C14.7137 16.111 13.8656 16.6689 12.9335 17.0456C12.0014 17.4224 11.0038 17.6104 9.99844 17.5989V17.5989ZM7.49944 9.7499C8.32744 9.7499 8.99844 8.9669 8.99844 7.9999C8.99844 7.0329 8.32644 6.2499 7.49844 6.2499C6.67044 6.2499 5.99844 7.0329 5.99844 7.9999C5.99844 8.9669 6.67044 9.7499 7.49944 9.7499V9.7499ZM12.4984 9.7499C13.3274 9.7499 13.9984 8.9669 13.9984 7.9999C13.9984 7.0329 13.3264 6.2499 12.4984 6.2499C11.6704 6.2499 10.9984 7.0339 10.9984 7.9999C10.9984 8.9659 11.6704 9.7499 12.4984 9.7499ZM14.3394 11.3359C14.1629 11.2469 13.9586 11.2305 13.7702 11.2903C13.5818 11.3501 13.4243 11.4814 13.3314 11.6559C13.2974 11.7219 12.4624 13.2489 9.99944 13.2489C7.54844 13.2489 6.70844 11.7359 6.66644 11.6569C6.57653 11.4793 6.41977 11.3448 6.23064 11.2828C6.04151 11.2208 5.8355 11.2365 5.65794 11.3264C5.48038 11.4163 5.3458 11.5731 5.28382 11.7622C5.22184 11.9513 5.23753 12.1573 5.32744 12.3349C5.37744 12.4339 6.57544 14.7489 9.99944 14.7489C13.4244 14.7489 14.6204 12.4329 14.6694 12.3339C14.7575 12.1577 14.7723 11.9538 14.7105 11.7668C14.6486 11.5798 14.5152 11.4248 14.3394 11.3359Z" fill="black"/>
</g>
<defs>
<clipPath id="clip0_770_39">
<rect width="20" height="20" fill="white"/>
</clipPath>
</defs>
</svg>
