<svg width="24" height="24" viewBox="0 0 24 24" fill="none" xmlns="http://www.w3.org/2000/svg">
<path d="M4.12909 3.19995L3.09 4.22805L4.03091 5.159C3.72773 5.27846 3.46758 5.48489 3.28388 5.75176C3.10018 6.01862 3.00132 6.33374 3 6.65662V17.1804C3 17.6098 3.1724 18.0216 3.47928 18.3253C3.78616 18.6289 4.20237 18.7995 4.63636 18.7995H9.54545V10.7042H9.63545L12.5891 13.6266C11.97 14.1506 11.4874 14.8142 11.1818 15.5614C11.5811 16.5235 12.2617 17.3457 13.1363 17.9226C14.0109 18.4995 15.0397 18.8049 16.0909 18.7995C16.6007 18.7978 17.1076 18.7242 17.5964 18.5809L19.2327 20.2L20.2718 19.1719L19.02 17.9333L4.12909 3.19995ZM7.90909 17.1804H4.63636V14.7519H7.90909V17.1804ZM7.90909 13.1328H4.63636V10.7042H7.90909V13.1328ZM7.90909 9.08519H4.63636V6.65662H5.54455L7.90909 8.99614V9.08519ZM16.0909 17.5852C15.784 17.5853 15.4809 17.5171 15.2043 17.3857C14.9276 17.2542 14.6844 17.0628 14.4927 16.8256C14.3009 16.5885 14.1656 16.3117 14.0967 16.0158C14.0277 15.7199 14.027 15.4124 14.0945 15.1161L16.5491 17.5447C16.3984 17.5752 16.2447 17.5888 16.0909 17.5852V17.5852ZM15.4691 12.3233L16.7864 13.6266C17.0684 13.7276 17.3245 13.8887 17.5366 14.0986C17.7487 14.3084 17.9116 14.5619 18.0136 14.8409L20.1327 16.9376C20.4926 16.5264 20.7852 16.0621 21 15.5614C20.6007 14.5993 19.9202 13.7771 19.0455 13.2002C18.1709 12.6232 17.1421 12.3179 16.0909 12.3233H15.4691ZM12.8182 6.65662V9.08519H12.1636L13.8 10.7042H19.3636V6.65662C19.3636 6.22722 19.1912 5.81541 18.8844 5.51178C18.5775 5.20815 18.1613 5.03757 17.7273 5.03757H8.07273L9.70909 6.65662H12.8182ZM14.4545 6.65662H17.7273V9.08519H14.4545V6.65662Z" fill="#3C4257"/>
</svg>
