<svg width="14" height="14" viewBox="0 0 14 14" fill="none" xmlns="http://www.w3.org/2000/svg">
<path d="M7.66668 4.99992H6.33334V3.66659H7.66668V4.99992ZM7.66668 10.3333H6.33334V6.33325H7.66668V10.3333ZM7.00001 0.333252C6.12453 0.333252 5.25762 0.50569 4.44879 0.840722C3.63995 1.17575 2.90502 1.66682 2.28596 2.28587C1.03572 3.53612 0.333344 5.23181 0.333344 6.99992C0.333344 8.76803 1.03572 10.4637 2.28596 11.714C2.90502 12.333 3.63995 12.8241 4.44879 13.1591C5.25762 13.4941 6.12453 13.6666 7.00001 13.6666C8.76812 13.6666 10.4638 12.9642 11.7141 11.714C12.9643 10.4637 13.6667 8.76803 13.6667 6.99992C13.6667 6.12444 13.4942 5.25753 13.1592 4.4487C12.8242 3.63986 12.3331 2.90493 11.7141 2.28587C11.095 1.66682 10.3601 1.17575 9.55123 0.840722C8.7424 0.50569 7.87549 0.333252 7.00001 0.333252Z" fill="#3C4257" fill-opacity="0.2"/>
</svg>
