<svg width="16" height="16" viewBox="0 0 16 16" fill="none" xmlns="http://www.w3.org/2000/svg">
<path d="M12.7134 3.28671L11.7734 4.22671C12.7334 5.19337 13.3334 6.52671 13.3334 8.00004C13.3334 9.41453 12.7715 10.7711 11.7713 11.7713C10.7711 12.7715 9.41453 13.3334 8.00004 13.3334C6.58555 13.3334 5.229 12.7715 4.2288 11.7713C3.22861 10.7711 2.66671 9.41453 2.66671 8.00004C2.66671 5.28004 4.70004 3.04004 7.33337 2.71337V4.06004C5.44004 4.38004 4.00004 6.02004 4.00004 8.00004C4.00004 9.06091 4.42147 10.0783 5.17161 10.8285C5.92176 11.5786 6.93917 12 8.00004 12C9.06091 12 10.0783 11.5786 10.8285 10.8285C11.5786 10.0783 12 9.06091 12 8.00004C12 6.89337 11.5534 5.89337 10.8267 5.17337L9.88671 6.11337C10.3667 6.60004 10.6667 7.26671 10.6667 8.00004C10.6667 8.70728 10.3858 9.38556 9.88566 9.88566C9.38556 10.3858 8.70728 10.6667 8.00004 10.6667C7.2928 10.6667 6.61452 10.3858 6.11442 9.88566C5.61433 9.38556 5.33337 8.70728 5.33337 8.00004C5.33337 6.76004 6.18671 5.72671 7.33337 5.42671V6.85337C6.93337 7.08671 6.66671 7.50671 6.66671 8.00004C6.66671 8.35366 6.80718 8.6928 7.05723 8.94285C7.30728 9.1929 7.64642 9.33337 8.00004 9.33337C8.35366 9.33337 8.6928 9.1929 8.94285 8.94285C9.1929 8.6928 9.33337 8.35366 9.33337 8.00004C9.33337 7.50671 9.06671 7.08004 8.66671 6.85337V1.33337H8.00004C7.12456 1.33337 6.25765 1.50581 5.44882 1.84084C4.63998 2.17588 3.90505 2.66694 3.286 3.286C2.03575 4.53624 1.33337 6.23193 1.33337 8.00004C1.33337 9.76815 2.03575 11.4638 3.286 12.7141C3.90505 13.3331 4.63998 13.8242 5.44882 14.1592C6.25765 14.4943 7.12456 14.6667 8.00004 14.6667C9.76815 14.6667 11.4638 13.9643 12.7141 12.7141C13.9643 11.4638 14.6667 9.76815 14.6667 8.00004C14.6667 6.16004 13.92 4.49337 12.7134 3.28671Z" fill="#3C4257"/>
</svg>
